/* XPM */
static char * secret3_xpm[] = {
"64 64 256 2",
"  	c #000000",
". 	c #0000FF",
"+ 	c #00FF00",
"@ 	c #FF0000",
"# 	c #00FFFF",
"$ 	c #FFFF00",
"% 	c #FF00FF",
"& 	c #FFFFFF",
"* 	c #7B7B7B",
"= 	c #7B7B7B",
"- 	c #7B7B7B",
"; 	c #7B7B7B",
"> 	c #7B7B7B",
", 	c #7B7B7B",
"' 	c #7B7B7B",
") 	c #7B7B7B",
"! 	c #7B7B7B",
"~ 	c #7B7B7B",
"{ 	c #7B7B7B",
"] 	c #7B7B7B",
"^ 	c #7B7B7B",
"/ 	c #7B7B7B",
"( 	c #7B7B7B",
"_ 	c #7B7B7B",
": 	c #7B7B7B",
"< 	c #7B7B7B",
"[ 	c #7B7B7B",
"} 	c #7B7B7B",
"| 	c #7B7B7B",
"1 	c #7B7B7B",
"2 	c #7B7B7B",
"3 	c #7B7B7B",
"4 	c #7B7B7B",
"5 	c #7B7B7B",
"6 	c #7B7B7B",
"7 	c #7B7B7B",
"8 	c #7B7B7B",
"9 	c #7B7B7B",
"0 	c #7B7B7B",
"a 	c #7B7B7B",
"b 	c #7B7B7B",
"c 	c #7B7B7B",
"d 	c #7B7B7B",
"e 	c #7B7B7B",
"f 	c #7B7B7B",
"g 	c #7B7B7B",
"h 	c #7B7B7B",
"i 	c #7B7B7B",
"j 	c #7B7B7B",
"k 	c #7B7B7B",
"l 	c #7B7B7B",
"m 	c #7B7B7B",
"n 	c #7B7B7B",
"o 	c #7B7B7B",
"p 	c #7B7B7B",
"q 	c #7B7B7B",
"r 	c #7B7B7B",
"s 	c #7B7B7B",
"t 	c #7B7B7B",
"u 	c #7B7B7B",
"v 	c #7B7B7B",
"w 	c #7B7B7B",
"x 	c #7B7B7B",
"y 	c #7B7B7B",
"z 	c #7B7B7B",
"A 	c #7B7B7B",
"B 	c #7B7B7B",
"C 	c #7B7B7B",
"D 	c #7B7B7B",
"E 	c #7B7B7B",
"F 	c #7B7B7B",
"G 	c #7B7B7B",
"H 	c #7B7B7B",
"I 	c #7B7B7B",
"J 	c #7B7B7B",
"K 	c #7B7B7B",
"L 	c #7B7B7B",
"M 	c #7B7B7B",
"N 	c #7B7B7B",
"O 	c #7B7B7B",
"P 	c #7B7B7B",
"Q 	c #7B7B7B",
"R 	c #7B7B7B",
"S 	c #7B7B7B",
"T 	c #7B7B7B",
"U 	c #7B7B7B",
"V 	c #7B7B7B",
"W 	c #7B7B7B",
"X 	c #7B7B7B",
"Y 	c #7B7B7B",
"Z 	c #7B7B7B",
"` 	c #7B7B7B",
" .	c #7B7B7B",
"..	c #7B7B7B",
"+.	c #7B7B7B",
"@.	c #7B7B7B",
"#.	c #7B7B7B",
"$.	c #7B7B7B",
"%.	c #7B7B7B",
"&.	c #7B7B7B",
"*.	c #7B7B7B",
"=.	c #7B7B7B",
"-.	c #7B7B7B",
";.	c #7B7B7B",
">.	c #7B7B7B",
",.	c #7B7B7B",
"'.	c #7B7B7B",
").	c #7B7B7B",
"!.	c #7B7B7B",
"~.	c #7B7B7B",
"{.	c #7B7B7B",
"].	c #7B7B7B",
"^.	c #7B7B7B",
"/.	c #7B7B7B",
"(.	c #7B7B7B",
"_.	c #7B7B7B",
":.	c #7B7B7B",
"<.	c #7B7B7B",
"[.	c #7B7B7B",
"}.	c #7B7B7B",
"|.	c #7B7B7B",
"1.	c #7B7B7B",
"2.	c #7B7B7B",
"3.	c #7B7B7B",
"4.	c #7B7B7B",
"5.	c #7B7B7B",
"6.	c #7B7B7B",
"7.	c #7B7B7B",
"8.	c #7B7B7B",
"9.	c #7B7B7B",
"0.	c #7B7B7B",
"a.	c #7B7B7B",
"b.	c #7B7B7B",
"c.	c #7B7B7B",
"d.	c #7B7B7B",
"e.	c #7B7B7B",
"f.	c #7B7B7B",
"g.	c #7B7B7B",
"h.	c #7B7B7B",
"i.	c #7B7B7B",
"j.	c #7B7B7B",
"k.	c #7B7B7B",
"l.	c #7B7B7B",
"m.	c #7B7B7B",
"n.	c #7B7B7B",
"o.	c #7B7B7B",
"p.	c #7B7B7B",
"q.	c #7B7B7B",
"r.	c #7B7B7B",
"s.	c #7B7B7B",
"t.	c #7B7B7B",
"u.	c #7B7B7B",
"v.	c #7B7B7B",
"w.	c #7B7B7B",
"x.	c #7B7B7B",
"y.	c #7B7B7B",
"z.	c #7B7B7B",
"A.	c #7B7B7B",
"B.	c #7B7B7B",
"C.	c #7B7B7B",
"D.	c #7B7B7B",
"E.	c #7B7B7B",
"F.	c #7B7B7B",
"G.	c #7B7B7B",
"H.	c #7B7B7B",
"I.	c #7B7B7B",
"J.	c #7B7B7B",
"K.	c #7B7B7B",
"L.	c #7B7B7B",
"M.	c #7B7B7B",
"N.	c #7B7B7B",
"O.	c #7B7B7B",
"P.	c #7B7B7B",
"Q.	c #7B7B7B",
"R.	c #7B7B7B",
"S.	c #7B7B7B",
"T.	c #7B7B7B",
"U.	c #7B7B7B",
"V.	c #7B7B7B",
"W.	c #7B7B7B",
"X.	c #7B7B7B",
"Y.	c #7B7B7B",
"Z.	c #7B7B7B",
"`.	c #7B7B7B",
" +	c #7B7B7B",
".+	c #7B7B7B",
"++	c #7B7B7B",
"@+	c #7B7B7B",
"#+	c #7B7B7B",
"$+	c #7B7B7B",
"%+	c #7B7B7B",
"&+	c #7B7B7B",
"*+	c #7B7B7B",
"=+	c #7B7B7B",
"-+	c #7B7B7B",
";+	c #7B7B7B",
">+	c #7B7B7B",
",+	c #7B7B7B",
"'+	c #7B7B7B",
")+	c #7B7B7B",
"!+	c #7B7B7B",
"~+	c #7B7B7B",
"{+	c #7B7B7B",
"]+	c #7B7B7B",
"^+	c #7B7B7B",
"/+	c #7B7B7B",
"(+	c #7B7B7B",
"_+	c #7B7B7B",
":+	c #7B7B7B",
"<+	c #7B7B7B",
"[+	c #7B7B7B",
"}+	c #7B7B7B",
"|+	c #7B7B7B",
"1+	c #7B7B7B",
"2+	c #7B7B7B",
"3+	c #7B7B7B",
"4+	c #7B7B7B",
"5+	c #7B7B7B",
"6+	c #7B7B7B",
"7+	c #7B7B7B",
"8+	c #7B7B7B",
"9+	c #7B7B7B",
"0+	c #7B7B7B",
"a+	c #7B7B7B",
"b+	c #7B7B7B",
"c+	c #7B7B7B",
"d+	c #7B7B7B",
"e+	c #7B7B7B",
"f+	c #7B7B7B",
"g+	c #7B7B7B",
"h+	c #7B7B7B",
"i+	c #7B7B7B",
"j+	c #7B7B7B",
"k+	c #7B7B7B",
"l+	c #7B7B7B",
"m+	c #7B7B7B",
"n+	c #7B7B7B",
"o+	c #7B7B7B",
"p+	c #7B7B7B",
"q+	c #7B7B7B",
"r+	c #7B7B7B",
"s+	c #7B7B7B",
"t+	c #7B7B7B",
"u+	c #412929",
"v+	c #4A3131",
"w+	c #523941",
"x+	c #623118",
"y+	c #412018",
"z+	c #202020",
"A+	c #393139",
"B+	c #413941",
"C+	c #392018",
"D+	c #41414A",
"E+	c #522918",
"F+	c #292929",
"G+	c #290810",
"C+u+v+u+v+v+v+v+v+v+v+v+v+v+v+v+v+v+v+v+v+v+v+v+v+v+v+v+v+v+C+z+z+u+v+u+v+v+v+v+v+v+v+v+v+v+v+v+v+v+v+v+v+v+v+v+v+v+v+v+v+v+z+z+",
"C+v+u+u+v+v+u+v+u+v+v+v+v+v+A+v+v+v+v+v+v+v+v+v+v+v+v+v+v+v+C+z+z+z+u+u+v+v+u+v+u+v+v+v+v+v+A+v+v+v+v+v+v+v+v+v+v+v+v+v+v+z+z+z+",
"C+z+y+y+y+y+y+y+y+y+y+y+y+y+y+y+y+y+y+y+y+E+E+x+x+E+E+y+y+z+G+z+z+z+z+z+z+z+z+z+z+z+z+z+z+z+z+z+z+z+z+z+z+z+z+z+z+z+z+z+z+z+z+z+",
"C+z+z+z+z+z+z+z+z+z+z+z+z+z+z+z+z+z+z+z+z+z+z+z+z+z+z+z+z+z+C+z+z+z+z+z+z+z+z+z+z+z+z+z+z+z+z+z+z+z+z+z+z+z+z+z+z+z+z+z+z+z+z+z+",
"C+C+z+z+z+z+z+z+z+z+z+z+z+z+z+z+F+z+z+z+z+z+z+z+z+z+z+z+z+z+z+z+z+z+z+z+z+z+z+z+z+z+z+z+z+z+z+z+z+z+z+z+z+z+z+z+z+z+z+z+z+z+z+z+",
"C+C+z+w+w+w+w+w+w+w+w+w+w+w+w+w+w+w+w+w+w+w+w+w+w+w+w+w+w+w+z+z+z+z+z+w+w+w+w+w+w+w+w+w+w+w+w+w+w+w+w+w+w+w+w+w+w+w+w+w+w+w+z+z+",
"C+C+v+v+v+v+v+v+B+v+v+v+v+v+v+v+v+v+v+v+v+v+v+v+v+v+v+v+v+v+v+z+z+z+v+v+v+v+v+v+B+v+v+v+v+v+v+v+v+v+v+v+v+v+v+v+v+v+v+v+v+v+v+z+",
"C+C+u+u+u+v+v+v+v+u+v+v+v+v+v+v+v+v+v+v+v+v+v+v+u+u+u+u+v+u+u+z+z+z+u+u+u+v+v+v+v+u+v+v+v+v+v+v+v+v+v+v+v+v+v+v+u+u+u+u+v+u+u+z+",
"C+C+u+u+u+u+v+v+u+u+u+v+v+v+v+v+v+v+v+v+v+v+v+v+u+u+u+u+u+u+v+F+z+z+u+u+u+u+v+v+u+u+u+v+v+v+v+v+v+v+v+v+v+v+v+v+u+u+u+u+u+u+v+z+",
"C+C+u+u+u+u+u+v+v+u+w+u+v+B+A+u+v+v+v+v+v+v+v+v+v+v+u+u+u+v+v+z+z+z+u+u+u+u+u+v+v+u+w+u+v+B+A+u+v+v+v+v+v+v+v+v+v+v+u+u+u+v+v+z+",
"C+C+u+u+u+u+v+w+B+v+u+u+u+v+v+v+B+u+v+v+v+v+v+v+v+v+v+u+v+v+v+z+z+z+u+u+u+u+v+w+B+v+u+u+u+v+v+v+B+u+v+v+v+v+v+v+v+v+v+u+v+v+v+z+",
"C+C+u+u+u+u+u+v+u+v+v+u+v+v+v+u+u+B+u+v+v+v+v+v+v+v+v+v+v+v+v+z+z+z+u+u+u+u+u+v+u+v+v+u+v+v+v+u+u+B+u+v+v+v+v+v+v+v+v+v+v+v+v+z+",
"C+C+u+u+u+u+v+u+u+u+u+u+v+v+u+u+u+u+B+u+v+v+v+u+v+v+v+v+v+v+v+z+z+z+u+u+u+u+v+u+u+u+u+u+v+v+u+u+u+u+B+u+v+v+v+u+v+v+v+v+v+v+v+z+",
"C+C+u+u+u+v+v+u+u+u+v+v+v+v+v+u+u+v+B+u+v+v+v+u+v+v+v+v+v+v+v+z+z+z+u+u+u+v+v+u+u+u+v+v+v+v+v+u+u+v+B+u+v+v+v+u+v+v+v+v+v+v+v+z+",
"C+C+u+u+u+u+v+v+u+v+v+v+v+v+u+v+v+v+v+D+v+v+u+u+u+v+u+u+v+u+u+z+z+z+u+u+u+u+v+v+u+v+v+v+v+v+u+v+v+v+v+D+v+v+u+u+u+v+u+u+v+u+u+z+",
"z+C+u+u+u+u+u+v+u+v+v+v+v+u+u+u+v+v+v+v+v+v+v+u+v+v+v+v+u+v+v+z+z+z+u+u+u+u+u+v+u+v+v+v+v+u+u+u+v+v+v+v+v+v+v+u+v+v+v+v+u+v+v+z+",
"z+C+v+u+v+u+v+v+v+v+v+v+v+v+u+u+u+v+v+v+v+u+v+v+v+u+v+u+v+u+u+z+z+z+v+u+v+u+v+v+v+v+v+v+v+v+u+u+u+v+v+v+v+u+v+v+v+u+v+u+v+u+u+z+",
"F+C+v+v+v+v+v+v+v+v+v+v+u+u+u+u+u+u+v+v+v+v+v+u+v+v+u+v+v+u+u+z+z+z+v+v+v+v+v+v+v+v+v+v+u+u+u+u+u+u+v+v+v+v+v+u+v+v+u+v+v+u+u+z+",
"z+C+v+v+v+u+v+v+v+v+v+v+v+v+u+u+u+u+v+u+v+v+u+u+u+u+u+u+u+u+u+F+z+z+v+v+v+u+v+v+v+v+v+v+v+v+u+u+u+u+v+u+v+v+u+u+u+u+u+u+u+u+u+z+",
"z+C+v+v+u+u+u+v+v+v+v+v+v+v+u+v+v+v+v+v+v+v+u+u+u+u+u+u+u+u+u+z+z+z+v+v+u+u+u+v+v+v+v+v+v+v+u+v+v+v+v+v+v+v+u+u+u+u+u+u+u+u+u+z+",
"z+C+v+v+u+u+u+v+v+v+u+u+v+v+v+v+v+v+v+v+v+v+v+u+u+u+u+u+u+u+u+z+z+z+v+v+u+u+u+v+v+v+u+u+v+v+v+v+v+v+v+v+v+v+v+u+u+u+u+u+u+u+u+z+",
"z+C+v+v+v+u+v+v+v+v+v+v+v+v+v+v+v+v+v+v+v+v+v+v+u+u+u+u+u+u+u+z+z+z+v+v+v+u+v+v+v+v+v+v+v+v+v+v+v+v+v+v+v+v+v+v+u+u+u+u+u+u+u+z+",
"z+C+v+v+v+v+v+v+v+v+v+v+v+v+v+v+v+v+v+v+v+v+u+v+u+u+u+v+u+u+u+z+z+z+v+v+v+v+v+v+v+v+v+v+v+v+v+v+v+v+v+v+v+v+u+v+u+u+u+v+u+u+u+z+",
"z+C+v+v+v+v+v+v+v+v+v+v+v+w+v+v+v+v+v+v+v+v+u+v+u+v+v+u+u+u+u+z+z+z+v+v+v+v+v+v+v+v+v+v+v+w+v+v+v+v+v+v+v+v+u+v+u+v+v+u+u+u+u+z+",
"z+C+v+v+v+v+v+v+v+v+v+v+v+v+v+v+v+v+v+v+v+u+v+v+v+v+u+u+u+u+u+z+F+z+v+v+v+v+v+v+v+v+v+v+v+v+v+v+v+v+v+v+v+u+v+v+v+v+u+u+u+u+u+z+",
"z+C+v+v+v+v+v+v+v+v+v+v+v+v+v+v+v+v+v+v+v+v+u+v+u+v+u+u+u+u+v+z+z+z+v+v+v+v+v+v+v+v+v+v+v+v+v+v+v+v+v+v+v+v+u+v+u+v+u+u+u+u+v+z+",
"z+C+v+v+v+v+v+v+v+v+v+v+v+v+v+v+v+v+v+v+v+v+v+v+v+v+v+v+u+v+u+z+z+z+v+v+v+v+v+v+v+v+v+v+v+v+v+v+v+v+v+v+v+v+v+v+v+v+v+v+u+v+u+z+",
"z+C+z+v+v+v+v+v+v+v+v+v+v+v+v+v+v+A+v+v+v+v+v+u+v+u+v+v+u+u+z+z+z+z+v+v+v+v+v+v+v+v+v+v+v+v+v+v+v+A+v+v+v+v+v+u+v+u+v+v+u+u+v+z+",
"z+C+z+z+z+z+z+z+z+z+z+z+z+z+z+z+z+z+z+z+z+z+z+z+z+z+z+z+z+z+z+z+z+G+z+y+y+E+E+x+x+E+E+y+y+y+y+y+y+y+y+y+y+y+y+y+y+y+y+y+y+y+z+z+",
"z+z+z+z+z+z+F+z+z+z+z+z+z+z+z+z+z+z+z+z+F+z+z+z+z+z+z+z+z+z+z+z+z+z+z+z+z+z+z+z+z+z+z+z+z+z+z+z+z+z+z+z+z+z+z+z+z+z+z+z+z+z+z+z+",
"z+z+z+z+z+z+z+z+z+z+z+z+z+z+C+z+z+z+z+z+z+z+z+z+z+z+z+z+z+z+z+z+z+z+z+z+z+z+z+z+z+z+z+z+z+z+z+F+z+z+z+z+z+z+z+z+z+z+z+z+z+z+z+z+",
"C+z+w+w+w+w+w+w+w+w+w+w+w+w+w+w+w+w+w+w+w+w+w+w+w+w+w+w+w+z+z+z+z+w+w+w+w+w+w+w+w+w+w+w+w+w+w+w+w+w+w+w+w+w+w+w+w+w+w+w+w+z+z+z+",
"C+v+v+v+v+v+v+v+v+v+v+v+v+v+v+v+v+v+v+v+v+v+v+B+v+v+v+v+v+v+z+z+E+v+v+v+v+v+v+v+v+v+v+v+v+v+v+v+v+v+v+v+v+v+v+B+v+v+v+v+v+v+z+z+",
"C+u+u+v+u+u+u+u+v+v+v+v+v+v+v+v+v+v+v+v+v+v+u+v+v+v+v+u+u+u+z+z+y+u+u+v+u+u+u+u+v+v+v+v+v+v+v+v+v+v+v+v+v+v+u+v+v+v+v+u+u+u+z+z+",
"C+v+u+u+u+u+u+u+v+v+v+v+v+v+v+v+v+v+v+v+v+u+u+u+v+v+u+u+u+u+z+z+y+v+u+u+u+u+u+u+v+v+v+v+v+v+v+v+v+v+v+v+v+u+u+u+v+v+u+u+u+u+z+z+",
"C+v+v+u+u+u+v+v+v+v+v+v+v+v+v+v+u+A+B+v+u+w+u+v+v+u+u+u+u+u+z+z+y+v+v+u+u+u+v+v+v+v+v+v+v+v+v+v+u+A+B+v+u+w+u+v+v+u+u+u+u+u+z+z+",
"C+v+v+v+u+v+v+v+v+v+v+v+v+v+u+B+v+v+v+u+u+u+v+B+w+v+u+u+u+u+F+z+y+v+v+v+u+v+v+v+v+v+v+v+v+v+u+B+v+v+v+u+u+u+v+B+w+v+u+u+u+u+z+z+",
"C+v+v+v+v+v+v+v+v+v+v+v+v+u+B+u+u+v+v+v+u+v+v+u+v+u+u+u+u+u+z+z+C+v+v+v+v+v+v+v+v+v+v+v+v+u+B+u+u+v+v+v+u+v+v+u+v+u+u+u+u+u+z+z+",
"C+v+v+v+v+v+v+v+u+v+v+v+u+B+u+u+u+u+v+v+u+u+u+u+u+v+u+u+u+u+z+z+y+v+v+v+v+v+v+v+u+v+v+v+u+B+u+u+u+u+v+v+u+u+u+u+u+v+u+u+u+u+z+z+",
"C+v+v+v+v+v+v+v+u+v+v+v+u+B+v+u+u+v+v+v+v+v+u+u+u+v+v+u+u+u+z+z+E+v+v+v+v+v+v+v+u+v+v+v+u+B+v+u+u+v+v+v+v+v+u+u+u+v+v+u+u+u+z+z+",
"C+u+u+v+u+u+v+u+u+u+v+v+D+v+v+v+v+u+v+v+v+v+v+u+v+v+u+u+u+u+z+z+E+u+u+v+u+u+v+u+u+u+v+v+D+v+v+v+v+u+v+v+v+v+v+u+v+v+u+u+u+u+z+z+",
"C+v+v+u+v+v+v+v+u+v+v+v+v+v+v+v+u+u+u+v+v+v+v+u+v+u+u+u+u+u+z+z+E+v+v+u+v+v+v+v+u+v+v+v+v+v+v+v+u+u+u+v+v+v+v+u+v+u+u+u+u+u+z+z+",
"C+u+u+v+u+v+u+v+v+v+u+v+v+v+v+u+u+u+v+v+v+v+v+v+v+v+u+v+u+v+z+z+E+u+u+v+u+v+u+v+v+v+u+v+v+v+v+u+u+u+v+v+v+v+v+v+v+v+u+v+u+v+z+z+",
"C+u+u+v+v+u+v+v+u+v+v+v+v+v+u+u+u+u+u+u+v+v+v+v+v+v+v+v+v+v+z+z+E+u+u+v+v+u+v+v+u+v+v+v+v+v+u+u+u+u+u+u+v+v+v+v+v+v+v+v+v+v+z+z+",
"C+u+u+u+u+u+u+u+u+u+v+v+u+v+u+u+u+u+v+v+v+v+v+v+v+v+u+v+v+v+z+z+E+u+u+u+u+u+u+u+u+u+v+v+u+v+u+u+u+u+v+v+v+v+v+v+v+v+u+v+v+v+z+z+",
"C+u+u+u+u+u+u+u+u+u+v+v+v+v+v+v+v+u+v+v+v+v+v+v+v+u+u+u+v+v+z+F+E+u+u+u+u+u+u+u+u+u+v+v+v+v+v+v+v+u+v+v+v+v+v+v+v+u+u+u+v+v+z+z+",
"C+u+u+u+u+u+u+u+u+v+v+v+v+v+v+v+v+v+v+v+u+u+v+v+v+u+u+u+v+v+z+z+E+u+u+u+u+u+u+u+u+v+v+v+v+v+v+v+v+v+v+v+u+u+v+v+v+u+u+u+v+v+z+z+",
"C+u+u+u+u+u+u+u+v+v+v+v+v+v+v+v+v+v+v+v+v+v+v+v+v+v+u+v+v+v+z+z+E+u+u+u+u+u+u+u+v+v+v+v+v+v+v+v+v+v+v+v+v+v+v+v+v+v+u+v+v+v+z+z+",
"C+u+u+u+v+u+u+u+v+u+v+v+v+v+v+v+v+v+v+v+v+v+v+v+v+v+v+v+v+v+z+z+E+u+u+u+v+u+u+u+v+u+v+v+v+v+v+v+v+v+v+v+v+v+v+v+v+v+v+v+v+v+z+z+",
"C+u+u+u+u+v+v+u+v+u+v+v+v+v+v+v+v+v+w+v+v+v+v+v+v+v+v+v+v+v+z+z+y+u+u+u+u+v+v+u+v+u+v+v+v+v+v+v+v+v+w+v+v+v+v+v+v+v+v+v+v+v+z+z+",
"C+u+u+u+u+u+v+v+v+v+u+v+v+v+v+v+v+v+v+v+v+v+v+v+v+v+v+v+v+v+C+z+y+u+u+u+u+u+v+v+v+v+u+v+v+v+v+v+v+v+v+v+v+v+v+v+v+v+v+v+v+v+z+z+",
"C+v+u+u+u+u+v+u+v+u+v+v+v+v+v+v+v+v+v+v+v+v+v+v+v+v+v+v+v+v+C+z+y+v+u+u+u+u+v+u+v+u+v+v+v+v+v+v+v+v+v+v+v+v+v+v+v+v+v+v+v+v+z+z+",
"C+u+v+u+v+v+v+v+v+v+v+v+v+v+v+v+v+v+v+v+v+v+v+v+v+v+v+v+v+v+C+z+z+u+v+u+v+v+v+v+v+v+v+v+v+v+v+v+v+v+v+v+v+v+v+v+v+v+v+v+v+v+z+z+",
"C+v+u+u+v+v+u+v+u+v+v+v+v+v+A+v+v+v+v+v+v+v+v+v+v+v+v+v+v+v+C+z+z+z+u+u+v+v+u+v+u+v+v+v+v+v+A+v+v+v+v+v+v+v+v+v+v+v+v+v+v+z+z+z+",
"C+z+y+y+y+y+y+y+y+y+y+y+y+y+y+y+y+y+y+y+y+E+E+x+x+E+E+y+y+y+z+z+z+z+z+z+z+z+z+z+z+z+z+z+z+z+z+z+z+z+z+z+z+z+z+z+z+z+z+z+z+z+z+z+",
"C+z+z+z+z+z+z+z+z+z+z+z+z+z+z+z+z+z+z+z+z+z+z+z+z+z+z+z+z+z+C+z+z+z+z+z+z+z+z+z+z+z+z+z+z+z+z+z+z+z+z+z+z+z+z+z+z+z+z+z+z+z+z+z+",
"z+z+z+z+z+z+z+z+z+z+z+z+z+z+C+z+z+z+z+z+z+z+z+z+z+z+z+z+z+z+z+z+z+z+z+z+z+z+z+z+z+z+z+z+z+z+z+F+z+z+z+z+z+z+z+z+z+z+z+z+z+z+z+z+",
"C+z+w+w+w+w+w+w+w+w+w+w+w+w+w+w+w+w+w+w+w+w+w+w+w+w+w+w+w+z+z+z+z+w+w+w+w+w+w+w+w+w+w+w+w+w+w+w+w+w+w+w+w+w+w+w+w+w+w+w+w+z+z+z+",
"C+v+v+v+v+v+v+v+v+v+v+v+v+v+v+v+v+v+v+v+v+v+v+B+v+v+v+v+v+v+z+z+E+v+v+v+v+v+v+v+v+v+v+v+v+v+v+v+v+v+v+v+v+v+v+B+v+v+v+v+v+v+z+z+",
"C+u+u+v+u+u+u+u+v+v+v+v+v+v+v+v+v+v+v+v+v+v+u+v+v+v+v+u+u+u+z+z+y+u+u+v+u+u+u+u+v+v+v+v+v+v+v+v+v+v+v+v+v+v+u+v+v+v+v+u+u+u+z+z+",
"C+v+u+u+u+u+u+u+v+v+v+v+v+v+v+v+v+v+v+v+v+u+u+u+v+v+u+u+u+u+z+z+y+v+u+u+u+u+u+u+v+v+v+v+v+v+v+v+v+v+v+v+v+u+u+u+v+v+u+u+u+u+z+z+",
"C+v+v+u+u+u+v+v+v+v+v+v+v+v+v+v+u+A+B+v+u+w+u+v+v+u+u+u+u+u+z+z+y+v+v+u+u+u+v+v+v+v+v+v+v+v+v+v+u+A+B+v+u+w+u+v+v+u+u+u+u+u+z+z+",
"C+v+v+v+u+v+v+v+v+v+v+v+v+v+u+B+v+v+v+u+u+u+v+B+w+v+u+u+u+u+F+z+y+v+v+v+u+v+v+v+v+v+v+v+v+v+u+B+v+v+v+u+u+u+v+B+w+v+u+u+u+u+z+z+",
"C+v+v+v+v+v+v+v+v+v+v+v+v+u+B+u+u+v+v+v+u+v+v+u+v+u+u+u+u+u+z+z+C+v+v+v+v+v+v+v+v+v+v+v+v+u+B+u+u+v+v+v+u+v+v+u+v+u+u+u+u+u+z+z+"};
