/* XPM */
static char * wall3_xpm[] = {
"64 64 256 2",
"  	c #000000",
". 	c #0000FF",
"+ 	c #00FF00",
"@ 	c #FF0000",
"# 	c #00FFFF",
"$ 	c #FFFF00",
"% 	c #FF00FF",
"& 	c #FFFFFF",
"* 	c #7B7B7B",
"= 	c #7B7B7B",
"- 	c #7B7B7B",
"; 	c #7B7B7B",
"> 	c #7B7B7B",
", 	c #7B7B7B",
"' 	c #7B7B7B",
") 	c #7B7B7B",
"! 	c #7B7B7B",
"~ 	c #7B7B7B",
"{ 	c #7B7B7B",
"] 	c #7B7B7B",
"^ 	c #7B7B7B",
"/ 	c #7B7B7B",
"( 	c #7B7B7B",
"_ 	c #7B7B7B",
": 	c #7B7B7B",
"< 	c #7B7B7B",
"[ 	c #7B7B7B",
"} 	c #7B7B7B",
"| 	c #7B7B7B",
"1 	c #7B7B7B",
"2 	c #7B7B7B",
"3 	c #7B7B7B",
"4 	c #7B7B7B",
"5 	c #7B7B7B",
"6 	c #7B7B7B",
"7 	c #7B7B7B",
"8 	c #7B7B7B",
"9 	c #7B7B7B",
"0 	c #7B7B7B",
"a 	c #7B7B7B",
"b 	c #7B7B7B",
"c 	c #7B7B7B",
"d 	c #7B7B7B",
"e 	c #7B7B7B",
"f 	c #7B7B7B",
"g 	c #7B7B7B",
"h 	c #7B7B7B",
"i 	c #7B7B7B",
"j 	c #7B7B7B",
"k 	c #7B7B7B",
"l 	c #7B7B7B",
"m 	c #7B7B7B",
"n 	c #7B7B7B",
"o 	c #7B7B7B",
"p 	c #7B7B7B",
"q 	c #7B7B7B",
"r 	c #7B7B7B",
"s 	c #7B7B7B",
"t 	c #7B7B7B",
"u 	c #7B7B7B",
"v 	c #7B7B7B",
"w 	c #7B7B7B",
"x 	c #7B7B7B",
"y 	c #7B7B7B",
"z 	c #7B7B7B",
"A 	c #7B7B7B",
"B 	c #7B7B7B",
"C 	c #7B7B7B",
"D 	c #7B7B7B",
"E 	c #7B7B7B",
"F 	c #7B7B7B",
"G 	c #7B7B7B",
"H 	c #7B7B7B",
"I 	c #7B7B7B",
"J 	c #7B7B7B",
"K 	c #7B7B7B",
"L 	c #7B7B7B",
"M 	c #7B7B7B",
"N 	c #7B7B7B",
"O 	c #7B7B7B",
"P 	c #7B7B7B",
"Q 	c #7B7B7B",
"R 	c #7B7B7B",
"S 	c #7B7B7B",
"T 	c #7B7B7B",
"U 	c #7B7B7B",
"V 	c #7B7B7B",
"W 	c #7B7B7B",
"X 	c #7B7B7B",
"Y 	c #7B7B7B",
"Z 	c #7B7B7B",
"` 	c #7B7B7B",
" .	c #7B7B7B",
"..	c #7B7B7B",
"+.	c #7B7B7B",
"@.	c #7B7B7B",
"#.	c #7B7B7B",
"$.	c #7B7B7B",
"%.	c #7B7B7B",
"&.	c #7B7B7B",
"*.	c #7B7B7B",
"=.	c #7B7B7B",
"-.	c #7B7B7B",
";.	c #7B7B7B",
">.	c #7B7B7B",
",.	c #7B7B7B",
"'.	c #7B7B7B",
").	c #7B7B7B",
"!.	c #7B7B7B",
"~.	c #7B7B7B",
"{.	c #7B7B7B",
"].	c #7B7B7B",
"^.	c #7B7B7B",
"/.	c #7B7B7B",
"(.	c #7B7B7B",
"_.	c #7B7B7B",
":.	c #7B7B7B",
"<.	c #7B7B7B",
"[.	c #7B7B7B",
"}.	c #7B7B7B",
"|.	c #7B7B7B",
"1.	c #7B7B7B",
"2.	c #7B7B7B",
"3.	c #7B7B7B",
"4.	c #7B7B7B",
"5.	c #7B7B7B",
"6.	c #7B7B7B",
"7.	c #7B7B7B",
"8.	c #7B7B7B",
"9.	c #7B7B7B",
"0.	c #7B7B7B",
"a.	c #7B7B7B",
"b.	c #7B7B7B",
"c.	c #7B7B7B",
"d.	c #7B7B7B",
"e.	c #7B7B7B",
"f.	c #7B7B7B",
"g.	c #7B7B7B",
"h.	c #7B7B7B",
"i.	c #7B7B7B",
"j.	c #7B7B7B",
"k.	c #7B7B7B",
"l.	c #7B7B7B",
"m.	c #7B7B7B",
"n.	c #7B7B7B",
"o.	c #7B7B7B",
"p.	c #7B7B7B",
"q.	c #7B7B7B",
"r.	c #7B7B7B",
"s.	c #7B7B7B",
"t.	c #7B7B7B",
"u.	c #7B7B7B",
"v.	c #7B7B7B",
"w.	c #7B7B7B",
"x.	c #7B7B7B",
"y.	c #7B7B7B",
"z.	c #7B7B7B",
"A.	c #7B7B7B",
"B.	c #7B7B7B",
"C.	c #7B7B7B",
"D.	c #7B7B7B",
"E.	c #7B7B7B",
"F.	c #7B7B7B",
"G.	c #7B7B7B",
"H.	c #7B7B7B",
"I.	c #7B7B7B",
"J.	c #7B7B7B",
"K.	c #7B7B7B",
"L.	c #7B7B7B",
"M.	c #7B7B7B",
"N.	c #7B7B7B",
"O.	c #7B7B7B",
"P.	c #7B7B7B",
"Q.	c #7B7B7B",
"R.	c #7B7B7B",
"S.	c #7B7B7B",
"T.	c #7B7B7B",
"U.	c #7B7B7B",
"V.	c #7B7B7B",
"W.	c #7B7B7B",
"X.	c #7B7B7B",
"Y.	c #7B7B7B",
"Z.	c #7B7B7B",
"`.	c #7B7B7B",
" +	c #7B7B7B",
".+	c #7B7B7B",
"++	c #7B7B7B",
"@+	c #7B7B7B",
"#+	c #7B7B7B",
"$+	c #7B7B7B",
"%+	c #7B7B7B",
"&+	c #7B7B7B",
"*+	c #7B7B7B",
"=+	c #7B7B7B",
"-+	c #7B7B7B",
";+	c #7B7B7B",
">+	c #7B7B7B",
",+	c #7B7B7B",
"'+	c #7B7B7B",
")+	c #7B7B7B",
"!+	c #7B7B7B",
"~+	c #7B7B7B",
"{+	c #7B7B7B",
"]+	c #7B7B7B",
"^+	c #7B7B7B",
"/+	c #7B7B7B",
"(+	c #7B7B7B",
"_+	c #7B7B7B",
":+	c #7B7B7B",
"<+	c #7B7B7B",
"[+	c #7B7B7B",
"}+	c #7B7B7B",
"|+	c #7B7B7B",
"1+	c #7B7B7B",
"2+	c #7B7B7B",
"3+	c #7B7B7B",
"4+	c #7B7B7B",
"5+	c #7B7B7B",
"6+	c #7B7B7B",
"7+	c #7B7B7B",
"8+	c #7B7B7B",
"9+	c #7B7B7B",
"0+	c #7B7B7B",
"a+	c #7B7B7B",
"b+	c #7B7B7B",
"c+	c #7B7B7B",
"d+	c #7B7B7B",
"e+	c #7B7B7B",
"f+	c #7B7B7B",
"g+	c #7B7B7B",
"h+	c #7B7B7B",
"i+	c #7B7B7B",
"j+	c #7B7B7B",
"k+	c #7B7B7B",
"l+	c #7B7B7B",
"m+	c #7B7B7B",
"n+	c #7B7B7B",
"o+	c #7B7B7B",
"p+	c #7B7B7B",
"q+	c #7B7B7B",
"r+	c #413941",
"s+	c #412929",
"t+	c #523941",
"u+	c #392018",
"v+	c #412020",
"w+	c #412018",
"x+	c #522918",
"y+	c #623931",
"z+	c #202020",
"A+	c #5A3920",
"B+	c #5A3929",
"C+	c #4A3131",
"D+	c #292929",
"E+	c #522929",
"F+	c #290810",
"G+	c #623118",
"s+s+s+s+s+s+C+s+s+B+B+s+G+s+C+s+s+s+B+B+B+s+B+B+B+G+s+B+B+E+u+z+u+s+s+s+G+E+G+G+G+G+G+E+E+E+B+s+C+C+E+C+C+s+E+B+s+s+s+s+w+s+u+u+",
"s+s+s+C+s+C+s+s+C+B+B+G+G+G+E+B+G+s+E+E+B+B+B+B+s+s+s+s+y+G+u+z+u+s+s+s+s+s+E+G+G+G+E+E+E+E+E+E+E+E+E+E+s+s+s+E+G+s+s+s+w+s+u+u+",
"z+s+C+y+y+y+C+C+y+y+y+C+C+y+y+y+y+y+y+C+C+C+y+y+C+y+E+E+x+s+F+z+z+z+z+z+z+z+z+z+z+z+z+z+z+z+z+z+z+z+z+z+z+z+z+z+z+z+z+z+z+z+u+u+",
"z+z+z+z+z+z+z+z+z+z+z+z+z+z+z+z+z+z+z+z+z+z+z+z+z+z+z+z+z+z+z+z+z+z+z+z+z+z+z+z+z+z+z+z+z+z+z+z+z+z+z+z+z+z+z+z+z+z+z+z+z+z+z+z+",
"z+z+z+z+z+z+z+z+z+z+D+z+z+z+z+z+D+z+z+z+z+z+z+z+z+z+z+z+z+z+u+z+z+u+z+z+z+z+z+z+z+z+z+z+z+z+z+z+z+u+z+z+z+z+z+z+z+z+z+z+z+z+z+z+",
"z+z+C+s+C+t+t+t+t+t+t+G+E+G+G+G+G+G+E+E+E+B+s+C+C+E+C+C+s+B+z+z+z+u+w+x+x+G+G+G+x+w+z+z+z+z+z+w+w+w+w+x+w+w+w+w+w+x+x+G+G+x+x+w+",
"z+z+s+s+s+C+C+C+r+C+C+G+G+G+G+G+E+G+E+s+C+C+B+B+E+C+s+C+E+C+C+z+z+u+E+E+G+G+E+G+x+G+z+z+w+C+E+G+G+G+G+G+E+E+G+G+G+G+G+G+G+G+E+E+",
"z+z+s+E+G+C+s+C+s+t+B+G+G+G+G+G+G+G+s+C+s+C+C+E+B+E+C+E+E+s+G+z+z+u+E+E+E+G+G+E+E+G+G+w+z+C+s+s+s+s+C+G+G+B+G+E+G+G+G+G+E+G+E+E+",
"z+z+s+G+G+s+s+C+C+G+G+s+B+s+G+B+G+s+C+s+s+C+C+C+B+B+C+C+s+C+s+D+z+u+E+E+E+E+G+G+G+G+G+G+z+E+C+s+s+C+s+G+B+B+B+B+G+G+G+E+E+E+E+E+",
"z+z+s+s+G+G+G+G+C+s+B+E+C+B+C+B+B+C+C+B+s+s+s+B+G+G+B+B+C+s+s+z+z+u+E+E+E+B+G+B+B+G+E+G+E+z+C+C+C+s+E+B+B+B+B+B+B+B+G+E+G+E+E+E+",
"z+z+G+G+G+E+G+G+G+E+E+s+C+B+E+E+C+C+C+s+E+B+B+s+G+B+B+E+B+s+E+z+z+u+E+E+E+G+E+B+B+A+G+A+E+E+B+C+s+E+E+B+B+B+B+A+G+G+B+B+G+B+E+E+",
"z+z+G+G+G+G+E+G+G+E+s+C+C+B+E+C+C+s+C+E+C+C+s+s+s+G+E+B+E+s+B+z+z+u+E+E+E+E+B+B+B+B+B+A+B+C+B+C+E+B+s+E+E+B+B+B+B+B+y+y+B+E+E+G+",
"z+z+G+G+G+G+G+G+G+s+C+s+C+C+E+B+E+C+E+E+s+G+s+s+G+G+B+B+E+E+E+z+z+u+G+E+G+G+G+B+B+B+B+B+B+G+s+B+s+G+G+E+B+B+B+B+B+B+B+B+B+B+E+E+",
"z+z+G+G+s+s+B+G+s+C+s+s+C+C+C+B+B+C+C+s+C+s+s+s+s+s+B+B+E+E+B+z+z+u+E+u+E+s+G+G+E+E+A+B+G+G+G+G+G+B+t+E+E+B+B+B+E+E+G+G+E+E+s+s+",
"z+z+G+B+s+B+B+B+C+C+B+s+s+s+B+G+G+B+B+C+s+s+s+s+B+B+B+s+B+B+B+z+z+u+s+C+s+s+B+E+E+E+G+B+B+B+E+B+B+E+E+E+B+B+B+B+E+B+B+G+G+E+s+s+",
"z+z+B+s+C+C+B+B+t+B+B+E+B+B+s+G+B+B+E+B+s+E+G+s+E+E+B+B+B+B+s+z+z+u+B+s+s+s+s+E+E+E+B+s+B+B+B+E+B+E+E+B+B+C+B+B+B+B+B+B+G+C+s+B+",
"z+z+B+B+s+B+B+B+B+B+B+B+B+s+s+s+G+E+B+E+s+B+B+E+E+B+C+v+s+B+s+z+z+u+B+B+C+B+B+A+E+E+s+B+B+s+s+B+E+B+E+B+B+B+B+B+B+B+B+B+A+s+B+B+",
"D+z+s+B+B+B+s+B+B+B+B+s+s+s+s+G+G+B+B+E+E+E+G+E+G+s+s+s+s+E+s+z+z+u+B+s+s+B+B+A+B+B+B+B+s+B+B+E+E+s+E+E+s+B+B+B+B+B+B+A+G+B+z+B+",
"z+z+B+B+s+B+B+B+B+B+s+C+s+s+s+s+s+B+B+E+E+B+s+s+E+E+B+s+E+s+E+D+z+u+s+s+E+B+s+E+B+B+B+B+s+B+E+E+B+E+s+s+s+B+B+B+B+B+B+B+B+z+z+z+",
"z+z+s+C+s+s+B+B+s+G+s+C+s+s+s+B+B+B+s+B+B+B+E+s+C+E+s+s+s+E+E+z+z+u+s+s+s+s+s+E+B+B+y+B+E+E+E+E+E+E+B+y+s+y+B+B+B+E+E+s+B+B+C+z+",
"z+z+C+s+s+C+B+B+G+G+G+E+B+G+s+E+E+B+B+B+B+s+G+E+E+s+s+E+s+E+E+z+z+u+s+s+s+s+C+E+B+B+B+B+E+C+E+B+E+B+B+G+C+B+s+E+B+E+s+s+s+B+B+z+",
"z+z+C+C+C+B+B+G+G+G+G+B+B+B+E+E+B+C+v+s+B+s+G+G+G+G+G+E+G+E+E+z+z+u+s+s+E+G+E+E+E+C+A+A+E+C+s+C+G+B+s+s+s+s+G+B+B+B+E+G+G+G+z+z+",
"z+z+s+C+B+B+B+B+G+E+E+B+B+G+E+G+s+s+s+s+E+s+G+s+G+E+E+G+G+E+E+z+z+u+s+s+E+C+E+E+E+E+E+G+G+s+G+G+G+G+s+G+s+G+G+A+E+E+s+C+s+s+z+z+",
"z+z+C+s+B+C+B+B+B+E+E+B+G+s+s+E+E+B+s+E+s+E+E+G+C+E+s+E+E+E+s+z+z+u+s+E+E+E+C+E+E+s+s+G+G+G+G+G+G+s+s+s+G+G+G+s+E+s+s+E+C+E+z+z+",
"z+z+B+s+G+s+B+B+B+G+E+y+E+E+s+C+E+s+s+s+E+E+C+C+E+s+C+s+E+s+s+z+z+u+s+E+G+E+G+s+C+C+G+s+s+s+s+G+C+s+s+G+G+G+G+s+s+C+s+G+E+z+z+z+",
"z+z+G+G+B+B+s+G+E+G+E+B+s+G+E+G+s+G+E+G+E+E+s+C+s+C+E+C+s+s+C+z+z+u+s+G+G+E+s+s+E+E+E+E+E+E+E+G+s+C+s+E+C+E+C+E+G+s+s+s+E+E+z+z+",
"z+z+z+G+G+s+G+G+E+E+E+E+E+G+E+z+z+E+E+E+E+E+C+C+C+C+C+s+s+s+z+z+z+u+C+s+G+G+E+s+G+E+E+E+E+E+E+E+E+E+G+E+E+E+E+E+E+G+s+E+E+E+E+z+",
"z+z+z+z+G+G+G+G+G+E+G+E+E+E+z+z+z+z+z+E+E+E+C+s+C+s+C+C+C+z+z+z+z+z+z+u+G+G+C+G+G+G+G+G+G+G+G+G+G+G+G+G+G+G+G+G+G+G+G+C+G+G+z+z+",
"z+z+z+z+z+z+z+z+z+z+z+z+z+z+z+z+z+z+z+z+z+z+z+z+z+z+z+z+z+z+z+z+z+z+z+z+C+C+y+y+y+C+C+y+y+y+y+y+y+C+C+y+y+y+y+C+C+y+y+y+C+C+z+z+",
"z+z+z+z+z+z+D+z+z+z+z+z+z+z+z+z+z+z+z+z+D+z+z+z+z+z+z+z+z+z+z+z+z+z+z+z+z+z+z+z+z+z+z+z+z+z+z+z+z+z+z+z+z+z+z+z+z+z+z+z+z+z+z+z+",
"z+z+z+z+z+z+z+z+z+z+z+z+z+z+u+z+z+z+z+z+z+z+z+z+z+z+z+z+z+z+z+z+D+z+z+z+z+z+z+z+z+z+z+z+z+z+z+D+z+z+z+z+z+z+z+z+z+z+z+z+z+u+u+z+",
"z+z+z+s+y+y+y+C+C+y+y+y+C+C+y+y+y+y+y+y+C+C+C+y+y+C+y+E+x+z+z+z+D+w+w+w+w+w+w+w+w+w+w+w+w+w+w+u+x+G+G+x+x+w+w+w+w+w+w+w+u+u+z+z+",
"u+z+v+G+G+G+G+G+G+G+G+G+G+G+B+G+G+G+G+G+G+G+G+C+G+G+G+G+G+z+z+z+w+E+E+E+E+E+E+E+E+E+E+E+E+E+E+E+s+G+G+G+G+G+s+G+s+E+E+s+s+u+u+z+",
"z+s+E+s+s+s+s+E+E+G+E+E+E+E+E+E+E+E+E+E+E+E+s+E+E+E+E+s+s+w+z+z+w+s+s+E+E+E+E+E+E+E+E+E+E+E+E+E+G+E+G+G+G+G+G+G+E+E+E+s+E+s+u+z+",
"B+s+s+s+s+s+s+E+G+G+G+E+E+E+E+E+E+E+E+E+E+s+s+s+E+G+s+s+s+w+z+z+w+s+E+E+E+E+E+E+G+G+G+G+G+G+E+E+E+E+E+G+G+s+G+s+G+s+s+s+s+G+u+z+",
"G+E+s+s+s+G+E+G+G+G+G+G+E+E+E+B+s+C+C+E+C+C+s+E+B+s+s+s+s+w+z+z+w+E+s+s+s+E+E+G+E+s+s+E+E+G+s+B+E+G+E+G+s+B+B+G+B+s+s+s+s+s+u+z+",
"G+G+G+s+G+G+G+G+G+G+E+G+E+s+C+C+B+B+E+C+s+C+E+C+C+B+s+C+s+w+D+z+w+E+s+s+s+E+E+s+s+s+E+C+s+E+E+y+E+G+B+B+B+s+G+s+B+G+s+s+s+s+u+z+",
"B+G+G+s+G+G+G+G+G+G+G+G+s+C+s+C+C+E+B+E+C+E+E+s+G+s+s+s+s+w+z+z+w+G+G+E+E+E+s+E+s+B+E+E+s+s+G+B+E+E+B+B+B+C+B+s+C+s+B+s+s+s+u+z+",
"B+G+G+G+G+G+G+s+G+B+G+s+C+s+s+C+C+C+B+B+C+C+s+C+s+G+s+s+s+w+z+z+w+B+G+s+G+s+E+s+s+s+s+G+E+G+B+B+E+E+G+B+B+B+B+C+s+C+s+s+s+s+u+z+",
"B+G+G+G+G+G+B+s+B+B+B+C+C+B+s+s+s+B+G+G+B+B+C+s+s+G+B+s+s+w+z+z+w+B+s+s+s+s+B+s+v+C+B+E+E+B+B+B+G+G+G+G+B+B+C+C+C+C+C+s+s+s+u+z+",
"s+G+G+G+G+B+s+C+C+B+B+t+B+B+E+B+B+s+G+B+B+E+B+s+E+B+s+s+s+w+z+z+w+y+s+s+s+s+B+B+B+B+E+E+s+G+B+E+G+G+G+B+B+C+s+s+C+s+C+s+s+s+u+z+",
"G+G+G+G+y+B+B+s+B+B+B+B+B+B+B+B+s+s+s+G+E+B+E+s+B+s+s+s+s+w+z+z+w+B+B+s+G+B+B+B+s+B+B+B+s+s+s+C+s+G+s+B+B+s+s+C+s+s+s+s+s+s+u+z+",
"s+G+G+G+B+s+B+B+B+s+B+B+B+B+s+s+s+s+G+G+B+B+E+E+E+B+C+B+C+w+z+z+w+B+B+B+B+B+E+E+B+B+s+s+s+s+s+C+s+B+B+B+B+B+s+B+B+s+B+B+s+s+u+z+",
"z+s+G+G+s+B+B+s+B+B+B+B+B+s+C+s+s+s+s+s+B+B+E+E+B+B+B+B+B+w+z+z+w+C+B+C+B+E+E+E+B+B+G+G+s+s+s+s+B+B+B+B+s+B+B+B+s+B+s+G+s+s+u+z+",
"z+z+s+B+B+C+s+s+s+B+B+s+G+s+C+s+s+s+B+B+B+s+B+B+B+G+s+B+B+w+z+z+w+s+s+s+s+B+s+E+B+E+G+s+s+s+B+B+B+B+B+B+B+B+s+B+B+B+B+s+G+B+u+z+",
"s+s+G+s+s+s+C+C+B+B+B+G+G+G+E+B+G+s+E+E+B+B+B+B+s+s+s+s+y+w+z+D+w+s+s+s+B+E+s+B+E+B+B+G+s+B+B+E+B+B+t+B+B+C+C+s+B+s+s+G+s+s+u+z+",
"C+B+B+B+C+C+C+B+B+B+G+G+G+G+B+B+B+E+E+B+C+v+s+B+s+s+s+s+B+w+z+z+w+s+s+B+G+s+s+C+B+B+G+G+B+s+s+s+B+C+C+B+B+B+s+B+G+y+B+B+G+B+u+z+",
"s+s+G+C+C+s+C+B+B+B+B+G+E+E+B+B+G+E+G+s+s+s+s+E+s+G+s+G+B+w+z+z+w+s+s+s+G+s+C+s+C+C+B+B+C+C+C+s+s+C+s+G+B+G+s+G+G+G+G+G+G+B+u+z+",
"s+s+G+s+C+C+s+B+C+B+B+B+E+E+B+G+s+s+E+E+B+s+E+s+E+E+E+G+G+w+z+z+w+s+s+s+s+G+s+E+E+C+E+B+E+C+C+s+C+s+G+G+G+G+G+G+G+G+G+G+G+B+u+z+",
"s+s+B+s+B+s+s+G+s+B+B+B+G+E+y+E+E+s+C+E+s+s+s+E+E+s+s+s+E+w+z+z+w+s+C+s+B+C+C+E+C+s+C+E+B+B+C+C+s+E+G+E+G+G+G+G+G+G+s+G+G+G+u+z+",
"s+s+G+s+B+B+G+B+B+s+G+E+G+E+B+s+G+E+E+s+s+E+G+E+E+s+s+s+E+w+z+z+w+s+s+s+s+B+E+s+C+C+E+C+C+s+B+E+E+E+G+G+G+G+G+E+G+s+s+s+E+G+u+z+",
"G+s+s+s+s+G+s+G+s+G+G+E+E+E+E+E+G+G+G+G+G+G+E+E+E+E+E+E+s+w+z+z+w+s+s+s+G+E+s+s+s+E+E+E+E+E+E+E+E+E+E+G+G+G+E+s+s+s+s+s+s+B+u+z+",
"s+E+s+E+E+E+G+G+G+G+G+G+E+G+E+E+E+E+E+E+E+E+E+E+E+E+E+s+s+w+z+u+w+s+s+E+E+E+E+s+E+E+E+E+E+E+E+E+E+E+E+E+G+E+E+s+s+s+s+E+s+s+u+z+",
"E+s+s+E+E+s+G+s+G+G+G+G+G+s+E+E+E+E+E+E+E+E+E+E+E+E+E+E+z+z+z+x+x+G+G+G+G+G+C+G+G+G+G+G+G+G+G+B+G+G+G+G+G+G+G+G+G+G+G+G+x+v+u+z+",
"u+w+w+w+w+w+w+w+w+x+x+G+G+x+u+w+w+w+w+w+w+w+w+w+w+w+w+z+z+z+u+z+E+E+E+y+C+y+y+C+C+C+y+y+y+y+y+y+C+C+y+y+y+C+C+y+y+y+C+s+u+u+u+z+",
"u+z+z+z+z+z+z+z+z+z+z+z+z+z+z+z+z+z+z+z+z+z+z+z+z+z+z+z+z+z+z+z+z+z+z+z+z+z+z+z+z+z+z+z+z+z+z+z+z+z+z+z+z+z+z+z+z+z+z+z+z+z+u+z+",
"z+z+z+z+z+z+z+z+z+z+z+z+z+z+u+z+z+z+z+z+z+z+z+z+z+z+z+z+z+z+z+z+z+z+z+z+z+z+z+z+z+z+z+z+z+z+z+z+z+z+z+z+z+z+z+z+z+z+z+z+z+z+z+z+",
"u+s+C+s+C+s+s+C+B+B+G+G+G+E+B+G+s+E+E+B+B+B+B+s+s+s+s+y+z+z+z+z+s+w+s+s+s+G+E+s+s+s+E+E+E+E+E+E+E+E+E+E+G+G+G+E+s+s+s+s+s+t+u+z+",
"u+s+s+s+s+C+s+s+B+B+s+G+s+C+s+s+s+B+B+B+s+B+B+B+G+s+B+B+w+z+z+z+s+w+s+s+s+s+B+E+s+C+C+E+C+C+s+B+E+E+E+G+G+G+G+G+E+G+s+s+s+C+u+z+",
"u+B+B+s+B+B+s+B+B+B+B+B+s+C+s+s+s+s+s+B+B+E+E+B+B+B+B+B+w+B+z+z+G+w+s+C+s+B+C+C+E+C+s+C+E+B+B+C+C+s+E+G+E+G+G+G+G+G+G+s+G+s+u+z+",
"u+G+s+B+s+B+B+B+s+B+B+B+B+s+s+s+s+G+G+B+B+E+E+E+B+C+B+C+w+G+z+z+G+w+s+s+s+s+G+s+E+E+C+E+B+E+C+C+s+C+s+G+G+G+G+G+G+G+G+G+G+s+u+z+",
"u+s+B+B+B+B+s+B+B+B+B+B+B+B+B+s+s+s+G+E+B+E+s+B+s+s+s+s+w+s+z+z+G+w+s+s+s+G+s+C+s+C+C+B+B+C+C+C+s+s+C+s+G+B+G+s+G+G+G+G+G+s+u+z+",
"u+G+s+s+B+s+C+C+B+B+t+B+B+E+B+B+s+G+B+B+E+B+s+E+B+s+s+s+w+G+z+z+B+w+s+s+B+G+s+s+C+B+B+G+G+B+s+s+s+B+C+C+B+B+B+s+B+G+y+B+B+s+u+z+",
"u+B+B+y+G+B+s+B+B+B+C+C+B+s+s+s+B+G+G+B+B+C+s+s+G+B+s+s+w+B+z+z+G+w+s+s+s+B+E+s+B+E+B+B+G+s+B+B+E+B+B+t+B+B+C+C+s+B+s+s+G+s+u+z+"};
